<svg xmlns="http://www.w3.org/2000/svg" viewBox="0 0 64 64" fill="none">
  <defs>
    <linearGradient id="primary-grad" x1="0%" y1="0%" x2="100%" y2="100%">
      <stop offset="0%" stop-color="#14B8A6" />
      <stop offset="100%" stop-color="#0F766E" />
    </linearGradient>
  </defs>
  <rect width="64" height="64" rx="16" fill="url(#primary-grad)" />
  <g transform="translate(8, 8) scale(2)">
    <path
      d="M12 2.2c-1.9 0-2.9 1-4.6 1.5-.9.3-1.9.2-2.8.6C3 5.1 2.6 6.8 2.9 8.7c.3 1.7.9 2.7 1.2 4.4.3 1.5.4 3.1.9 4.9.3 1.2.7 2.9 1.7 2.9 1.1 0 1.4-1.8 1.8-3.4.3-1.3.5-2.8 1.6-2.8h.2c1.1 0 1.3 1.5 1.6 2.8.4 1.6.7 3.4 1.8 3.4 1 0 1.4-1.7 1.7-2.9.5-1.8.6-3.4.9-4.9.3-1.7.9-2.7 1.2-4.4.3-1.9-.1-3.6-1.7-4.4-.9-.4-1.9-.3-2.8-.6C14.9 3.2 13.9 2.2 12 2.2Z"
      fill="#FFFFFF"
    />
  </g>
</svg>
